# xmcd
#
# Track frame offsets: 
#        150
#        26308
#        56566
#        73891
#        86976
#        105399
#        126773
#        144941
#        166203
#        190101
#
# Disc length: 2799 seconds
#
# Revision: 3
# Processed by: cddbd v1.5.2PL0 Copyright (c) Steve Scherf et al.
# Submitted via: ExactAudioCopy v1.0b3
#
DISCID=820aed0a
DTITLE=Budapest Klezmer Band - Yiddishe Blues
DYEAR=2000
DGENRE=Jewish-Klezmer
TTITLE0=Tartar Dance
TTITLE1=Jewish Dance
TTITLE2=Fantasie
TTITLE3=Hora
TTITLE4=Sirba
TTITLE5=Jidl Mit'n Fiddl'
TTITLE6=Emancipated Klezmer
TTITLE7=Donna - Donna
TTITLE8=Yiddishe Blues
TTITLE9=Bei Mir Bist Du Schejn
EXTD=YEAR: 2000  ID3G:   0
EXTT0=
EXTT1=
EXTT2=
EXTT3=
EXTT4=
EXTT5=
EXTT6=
EXTT7=
EXTT8=
EXTT9=
PLAYORDER=
